<svg xmlns="http://www.w3.org/2000/svg" viewBox="0 0 277 163" width="277" height="163">
	<style>
		tspan { white-space:pre }
		.shp0 { fill: #4a4a49 } 
		.shp1 { fill: none;stroke: #b95951 } 
	</style>
	<g id="Layer">
		<g id="Layer">
			<g id="Layer">
				<path id="Layer" class="shp0" d="M199.3 47.5C196.7 49 195.4 50.4 195.4 50.4C195.4 50.4 196.6 49.5 199.5 48.6C200.9 54.8 207.9 57.3 217.7 57.5C227.8 57.7 232.5 52.3 232.5 52.3C221 58.2 210.2 56.1 205 53.2C202.7 51.9 201 50.2 200.7 48.2C204 47.3 208.9 46.4 215.8 46.4C230.8 46.4 238.1 50.4 238.1 50.4C238.1 50.4 229.2 43.7 217.9 43.1C210.3 42.7 204.5 44.7 200.6 46.7C200.9 44.6 202.7 42.3 206.6 40.2C215.3 35.5 223.4 37.8 227.8 39.5C233.4 41.6 242.4 48.2 246.8 49.6C251.3 51 253.4 49.8 253.4 49.8C242.3 50.5 236.2 38.5 223.3 36.4C210.8 34.4 198.7 40.3 199.3 47.5Z" />
			</g>
		</g>
		<g id="Layer">
			<g id="Layer">
				<path id="Layer" class="shp0" d="M76.6 47.5C79.2 49 80.5 50.4 80.5 50.4C80.5 50.4 79.3 49.5 76.4 48.6C75 54.8 68 57.3 58.2 57.5C48.1 57.7 43.4 52.3 43.4 52.3C54.9 58.2 65.7 56.1 70.9 53.2C73.2 51.9 74.9 50.2 75.2 48.2C71.9 47.3 67 46.4 60.1 46.4C45.1 46.4 37.8 50.4 37.8 50.4C37.8 50.4 46.7 43.7 58 43.1C65.6 42.7 71.4 44.7 75.3 46.7C75 44.6 73.2 42.3 69.3 40.2C60.6 35.5 52.5 37.8 48.1 39.5C42.5 41.6 33.5 48.2 29.1 49.6C24.6 51 22.5 49.8 22.5 49.8C33.6 50.5 39.7 38.5 52.6 36.4C65.2 34.4 77.3 40.3 76.6 47.5Z" />
			</g>
		</g>
		<g id="Layer">
			<g id="Layer">
				<g id="Layer">
					<path id="Layer" class="shp0" d="M137.3 40.1C134.3 40.3 132.4 41.7 132.4 41.7C135.9 43.8 137.2 48.8 137.2 50.2C137.2 51.6 137.2 54.4 137.2 54.4C137.2 56.3 135.1 58.1 135.1 58.1L139.9 58.1C139.9 58.1 138 56.2 138.1 54.4C138.3 52.3 138.1 50.3 138.1 50.3C138.1 44 142.7 41.7 142.7 41.7C142.7 41.7 140.3 39.9 137.3 40.1Z" />
				</g>
			</g>
			<g id="Layer">
				<g id="Layer">
					<path id="Layer" class="shp0" d="M180.7 56.9C181 57.2 181.3 57.4 181.5 57.7C181.5 57.7 181.2 57.4 180.7 56.9Z" />
				</g>
			</g>
			<g id="Layer">
				<g id="Layer">
					<path id="Layer" class="shp0" d="M92.9 57.7C93.2 57.4 93.5 57.2 93.7 56.9C93.2 57.4 92.9 57.7 92.9 57.7Z" />
				</g>
			</g>
			<g id="Layer">
				<g id="Layer">
					<path id="Layer" fill-rule="evenodd" class="shp0" d="M103.5 41.7C105.2 36.9 105.5 33.4 105.5 33.4C97.4 45.4 86.9 44.3 85.2 39.8C83.6 35.7 88 32.9 90.9 35.2C93.2 37 90.8 40.8 89 38.7C87.8 37.3 89.9 35.9 89.9 35.9C88.7 35 86.1 36.1 86.4 38.7C86.7 41.7 92.4 44 98.9 39.1C105.4 34.2 107 28.2 107 28.2C107.2 33.1 106.3 37.7 105 41.4C107.6 40.7 110.5 40.2 113.9 40.4C113.9 40.4 118.1 22 137.1 21.4C156.1 22.1 160.3 40.4 160.3 40.4C164.1 40.2 167.3 40.8 170.2 41.7C168.9 37.9 167.9 33.2 168.1 28.2C168.1 28.2 169.7 34.2 176.2 39.1C182.7 44 188.4 41.7 188.7 38.7C189 36.1 186.4 35 185.2 35.9C185.2 35.9 187.3 37.3 186.1 38.7C184.4 40.8 181.9 37 184.2 35.2C187.1 32.9 191.5 35.7 189.9 39.8C188.2 44.3 177.7 45.4 169.6 33.4C169.6 33.4 169.9 37.1 171.7 42.1C176.5 43.9 180.6 46.7 185.6 48.8C190 50.7 194.8 50.6 194.8 50.6C194.8 50.6 191.5 52.1 186.2 50.2C180.7 48.3 177 45.4 172.2 43.4C173.9 47.6 176.6 52.6 181.1 57C179.3 55.4 174.7 51.8 168 49.9C164.8 49 162.1 48.6 159.8 48.6C159.2 50.7 158.1 52.9 156.3 54.6C151.7 58.9 146.2 58.9 144.1 55C142.6 52.2 144.1 43.7 152.3 41.2C152.1 40.5 152 39.8 151.8 39C151.8 39 152.3 39.8 152.8 41.1C154.4 40.7 156.4 40.5 158.6 40.6C158.6 40.6 156.7 26.5 136.9 26.5C117.1 26.5 115.2 40.6 115.2 40.6C117.8 40.4 120 40.7 121.8 41.3C122.3 39.9 122.9 39 122.9 39C122.7 39.9 122.5 40.7 122.4 41.5C129.9 44.3 131.3 52.3 129.8 55C127.7 58.8 122.2 58.8 117.6 54.6C115.8 52.9 114.7 50.7 114.1 48.6C112 48.7 109.6 49 106.8 49.8C100 51.7 95.5 55.3 93.7 56.9C98.2 52.4 101 47.2 102.7 42.9C97.3 44.8 93.5 48 87.7 50.1C82.5 52 79.1 50.5 79.1 50.5C79.1 50.5 83.9 50.5 88.3 48.7C93.7 46.5 98 43.4 103.5 41.7ZM158.1 48.5C154.6 48.7 152.2 49.7 150.9 50.8L150.8 50.9C151 51.1 151.1 51.4 151.1 51.7C151.1 52.5 150.5 53.1 149.7 53.1C148.9 53.1 148.3 52.5 148.3 51.7C148.3 50.9 148.9 50.3 149.7 50.3C149.9 50.3 150.1 50.3 150.3 50.4L150.4 50.3C150.4 50.3 152.5 47.5 152.1 42.4C151.5 42.6 150.9 42.9 150.3 43.2C146 45.6 144.5 50.7 146.1 53.3C147.7 56 152.1 57 156 52.6C157 51.3 157.7 49.9 158.1 48.5ZM159.8 47C163.9 46.7 169.3 47.3 174.3 50.8C174.3 50.8 172.1 47.6 170.3 42.7C167.5 41.8 164.3 41.2 160.2 41.3C160.2 41.3 160.4 43.9 159.8 47ZM158.8 41.4C158.8 41.4 156.1 41.2 153 42.1C153.4 43.8 153.4 46 152.5 48.5C152.5 48.5 154.9 47.5 158.6 47.1C159.2 44.1 158.8 41.4 158.8 41.4ZM122.1 42.8C121.9 47.7 123.8 50.3 123.8 50.3L123.9 50.4C124.1 50.4 124.3 50.3 124.5 50.3C125.3 50.3 125.9 50.9 125.9 51.7C125.9 52.5 125.3 53.1 124.5 53.1C123.7 53.1 123.1 52.5 123.1 51.7C123.1 51.4 123.2 51.1 123.4 50.9L123.3 50.8C121.9 49.6 119.2 48.5 115.3 48.5C115.7 49.9 116.4 51.4 117.5 52.6C121.4 57 125.8 55.9 127.4 53.3C129 50.6 127.6 45.6 123.2 43.2C122.9 43 122.6 42.9 122.1 42.8ZM115 47.1C119.1 47.4 122 48.6 122 48.6C121.1 46.2 121.1 44.1 121.4 42.5C118.1 41.3 114.8 41.5 114.8 41.5C114.8 41.5 114.4 44 115 47.1ZM104.2 42.5C102.3 47.6 100.1 50.9 100.1 50.9C104.8 47.6 109.8 46.9 113.8 47C113.2 43.9 113.4 41.3 113.4 41.3C109.7 41.2 106.8 41.6 104.2 42.5Z" />
				</g>
			</g>
			<g id="Layer">
				<g id="Layer">
					<path id="Layer" class="shp0" d="M137.4 33.8C136.29 33.8 135.4 32.91 135.4 31.8C135.4 30.69 136.29 29.8 137.4 29.8C138.51 29.8 139.4 30.69 139.4 31.8C139.4 32.91 138.51 33.8 137.4 33.8Z" />
				</g>
			</g>
			<g id="Layer">
				<g id="Layer">
					<path id="Layer" class="shp0" d="M143.3 34.3C142.36 34.3 141.6 33.54 141.6 32.6C141.6 31.66 142.36 30.9 143.3 30.9C144.24 30.9 145 31.66 145 32.6C145 33.54 144.24 34.3 143.3 34.3Z" />
				</g>
			</g>
			<g id="Layer">
				<g id="Layer">
					<path id="Layer" class="shp0" d="M147.7 35.9C148.4 35.9 149 35.3 149 34.6C149 33.9 148.4 33.3 147.7 33.3C147 33.3 146.4 33.9 146.4 34.6C146.4 35.3 146.9 35.9 147.7 35.9Z" />
				</g>
			</g>
			<g id="Layer">
				<g id="Layer">
					<path id="Layer" class="shp0" d="M150.8 37.8C150.19 37.8 149.7 37.31 149.7 36.7C149.7 36.09 150.19 35.6 150.8 35.6C151.41 35.6 151.9 36.09 151.9 36.7C151.9 37.31 151.41 37.8 150.8 37.8Z" />
				</g>
			</g>
			<g id="Layer">
				<g id="Layer">
					<path id="Layer" class="shp0" d="M131 34.3C130.06 34.3 129.3 33.54 129.3 32.6C129.3 31.66 130.06 30.9 131 30.9C131.94 30.9 132.7 31.66 132.7 32.6C132.7 33.54 131.94 34.3 131 34.3Z" />
				</g>
			</g>
			<g id="Layer">
				<g id="Layer">
					<path id="Layer" class="shp0" d="M126.6 35.9C125.88 35.9 125.3 35.32 125.3 34.6C125.3 33.88 125.88 33.3 126.6 33.3C127.32 33.3 127.9 33.88 127.9 34.6C127.9 35.32 127.32 35.9 126.6 35.9Z" />
				</g>
			</g>
			<g id="Layer">
				<g id="Layer">
					<path id="Layer" class="shp0" d="M123.4 37.8C122.79 37.8 122.3 37.31 122.3 36.7C122.3 36.09 122.79 35.6 123.4 35.6C124.01 35.6 124.5 36.09 124.5 36.7C124.5 37.31 124.01 37.8 123.4 37.8Z" />
				</g>
			</g>
			<g id="Layer">
				<g id="Layer">
					<path id="Layer" class="shp0" d="M163.7 38.1C163.04 38.1 162.5 37.56 162.5 36.9C162.5 36.24 163.04 35.7 163.7 35.7C164.36 35.7 164.9 36.24 164.9 36.9C164.9 37.56 164.36 38.1 163.7 38.1Z" />
				</g>
			</g>
			<g id="Layer">
				<g id="Layer">
					<path id="Layer" class="shp0" d="M162.3 33.7C161.42 33.7 160.7 32.98 160.7 32.1C160.7 31.22 161.42 30.5 162.3 30.5C163.18 30.5 163.9 31.22 163.9 32.1C163.9 32.98 163.18 33.7 162.3 33.7Z" />
				</g>
			</g>
			<g id="Layer">
				<g id="Layer">
					<path id="Layer" class="shp0" d="M160 29.3C160.9 29.3 161.6 28.6 161.6 27.7C161.6 26.8 160.9 26.1 160 26.1C159.1 26.1 158.4 26.8 158.4 27.7C158.4 28.6 159.1 29.3 160 29.3Z" />
				</g>
			</g>
			<g id="Layer">
				<g id="Layer">
					<path id="Layer" class="shp0" d="M156.5 25.2C157.5 25.2 158.3 24.4 158.3 23.4C158.3 22.4 157.5 21.6 156.5 21.6C155.5 21.6 154.7 22.4 154.7 23.4C154.7 24.4 155.5 25.2 156.5 25.2Z" />
				</g>
			</g>
			<g id="Layer">
				<g id="Layer">
					<path id="Layer" class="shp0" d="M152.2 21.2C153.2 21.2 154.1 20.4 154.1 19.3C154.1 18.3 153.3 17.4 152.2 17.4C151.2 17.4 150.3 18.2 150.3 19.3C150.3 20.4 151.1 21.2 152.2 21.2Z" />
				</g>
			</g>
			<g id="Layer">
				<g id="Layer">
					<path id="Layer" class="shp0" d="M142.4 16.4C142.4 17.7 143.4 18.7 144.7 18.7C146 18.7 147 17.7 147 16.4C147 15.1 146 14.1 144.7 14.1C143.4 14.1 142.4 15.2 142.4 16.4Z" />
				</g>
			</g>
			<g id="Layer">
				<g id="Layer">
					<path id="Layer" class="shp0" d="M110 38.1C109.34 38.1 108.8 37.56 108.8 36.9C108.8 36.24 109.34 35.7 110 35.7C110.66 35.7 111.2 36.24 111.2 36.9C111.2 37.56 110.66 38.1 110 38.1Z" />
				</g>
			</g>
			<g id="Layer">
				<g id="Layer">
					<path id="Layer" class="shp0" d="M111.4 33.7C112.3 33.7 113 33 113 32.1C113 31.2 112.3 30.5 111.4 30.5C110.5 30.5 109.8 31.2 109.8 32.1C109.8 33 110.5 33.7 111.4 33.7Z" />
				</g>
			</g>
			<g id="Layer">
				<g id="Layer">
					<path id="Layer" class="shp0" d="M113.7 29.3C112.82 29.3 112.1 28.58 112.1 27.7C112.1 26.82 112.82 26.1 113.7 26.1C114.58 26.1 115.3 26.82 115.3 27.7C115.3 28.58 114.58 29.3 113.7 29.3Z" />
				</g>
			</g>
			<g id="Layer">
				<g id="Layer">
					<path id="Layer" class="shp0" d="M117.2 25.3C116.2 25.3 115.4 24.5 115.4 23.5C115.4 22.5 116.2 21.7 117.2 21.7C118.2 21.7 119 22.5 119 23.5C119 24.5 118.2 25.3 117.2 25.3Z" />
				</g>
			</g>
			<g id="Layer">
				<g id="Layer">
					<path id="Layer" class="shp0" d="M121.6 21.2C122.6 21.2 123.5 20.4 123.5 19.3C123.5 18.3 122.7 17.4 121.6 17.4C120.6 17.4 119.7 18.2 119.7 19.3C119.7 20.4 120.5 21.2 121.6 21.2Z" />
				</g>
			</g>
			<g id="Layer">
				<g id="Layer">
					<path id="Layer" class="shp0" d="M129.1 18.7C127.83 18.7 126.8 17.67 126.8 16.4C126.8 15.13 127.83 14.1 129.1 14.1C130.37 14.1 131.4 15.13 131.4 16.4C131.4 17.67 130.37 18.7 129.1 18.7Z" />
				</g>
			</g>
			<g id="Layer">
				<g id="Layer">
					<path id="Layer" class="shp0" d="M136.9 17.8C135.63 17.8 134.6 16.77 134.6 15.5C134.6 14.23 135.63 13.2 136.9 13.2C138.17 13.2 139.2 14.23 139.2 15.5C139.2 16.77 138.17 17.8 136.9 17.8Z" />
				</g>
			</g>
			<g id="Layer">
				<g id="Layer">
					<path id="Layer" class="shp0" d="M150.7 12.7C150.7 12.7 147 7.2 137.1 7.2C127.2 7.2 122.3 12.8 122.3 12.8C122.3 12.8 127.9 9.1 137.8 9.1C146.1 9.2 150.7 12.7 150.7 12.7Z" />
				</g>
			</g>
			<g id="Layer">
				<g id="Layer">
					<path id="Layer" fill-rule="evenodd" class="shp0" d="M134.1 2.5C134.1 1.1 135.2 0 136.6 0C138 0 139.1 1.1 139.1 2.5C139.1 3.9 138 5 136.6 5C135.2 5 134.1 3.9 134.1 2.5ZM135.4 2.5C135.4 3.1 135.9 3.7 136.6 3.7C137.2 3.7 137.8 3.1 137.8 2.5C137.8 1.9 137.3 1.3 136.6 1.3C135.9 1.3 135.4 1.9 135.4 2.5Z" />
				</g>
			</g>
		</g>
	</g>
	<g id="Layer">
		<g id="Layer">
			<g id="Layer">
				<path id="Layer" class="shp0" d="M115.8 150.3C116 150.1 116 150 116 150C116 150 115.9 150.1 115.8 150.3Z" />
			</g>
		</g>
		<g id="Layer">
			<g id="Layer">
				<path id="Layer" class="shp0" d="M115.8 150.3C115 151.2 111.7 153.5 100.4 153.1C87.7 152.7 82.7 147 82.3 143.7L111.3 144.6L111.3 145.1C111.3 146.4 112.4 147.5 113.7 147.5C115 147.5 116.1 146.4 116.1 145.1L116.1 144.7C116.8 144.7 118 144.6 120.2 144.6C125.2 144.4 124.9 143.1 124.9 143.1C125.1 140.8 118.9 141.1 118.1 141.1C118 141.1 117.3 141.1 116.1 141.1L116.1 141C116.1 139.7 115 138.6 113.7 138.6C112.4 138.6 111.3 139.7 111.3 141L111.3 141.2C104.3 141.4 92.9 141.6 82.6 141.8C83.6 139.2 86.9 137.1 92.4 137.1C98.6 137.1 101.4 139.4 101.4 139.4C96.7 134.1 82.9 136 81.3 141.8C79.4 141.8 77.6 141.9 75.8 141.9C73.8 141.6 71.5 141.2 70.4 140.8C68.1 140 68.8 139.2 69.7 139C69.7 139 70.2 137.4 68.4 137.4C66.6 137.4 65.7 140.1 69.7 141.3C70.5 141.6 71.4 141.8 72.2 142C67.6 142.1 63.8 142.2 61.7 142.2C61.4 141.5 60.7 140.9 59.9 140.9C58.8 140.9 57.9 141.8 57.9 142.9C57.9 144 58.8 144.9 59.9 144.9C61 144.9 61.8 144.1 61.8 143L75.1 143.4C73.5 143.7 71.5 144.2 69.7 144.7C65.7 146 66.6 148.6 68.4 148.6C70.2 148.6 69.7 147 69.7 147C68.7 146.8 68.1 146 70.4 145.2C72.7 144.4 79.7 143.6 79.7 143.6L79.5 143.5L81.2 143.6C81.8 150.1 88.8 153.7 100.4 154.7C110.6 155.5 114.8 151.4 115.8 150.3Z" />
			</g>
		</g>
		<g id="Layer">
			<g id="Layer">
				<path id="Layer" class="shp0" d="M215.9 141C215.1 141 214.4 141.5 214.1 142.3C212 142.3 208.3 142.2 203.6 142.1C204.4 141.9 205.3 141.7 206.1 141.4C210.1 140.1 209.2 137.5 207.4 137.5C205.6 137.5 206.1 139.1 206.1 139.1C207.1 139.3 207.7 140.1 205.4 140.9C204.3 141.3 202 141.7 200 142C198.2 142 196.4 141.9 194.5 141.9C193 136.1 179.2 134.1 174.4 139.5C174.4 139.5 177.2 137.2 183.4 137.2C188.9 137.2 192.2 139.3 193.2 141.9C182.9 141.7 171.5 141.4 164.5 141.3L164.5 141.1C164.5 139.8 163.4 138.7 162.1 138.7C160.8 138.7 159.7 139.8 159.7 141.1L159.7 141.2C158.5 141.2 157.8 141.2 157.7 141.2C156.9 141.2 150.7 140.9 150.9 143.2C150.9 143.2 150.6 144.5 155.6 144.7C157.7 144.8 159 144.8 159.7 144.8L159.7 145.2C159.7 146.5 160.8 147.6 162.1 147.6C163.4 147.6 164.5 146.5 164.5 145.2L164.5 144.7L193.5 143.8C193.1 147.1 188.1 152.8 175.4 153.2C164.1 153.6 160.8 151.3 160 150.4C161 151.6 165.2 155.7 175.4 154.8C187 153.8 194 150.2 194.6 143.7L196.3 143.6L196.1 143.7C196.1 143.7 203.1 144.5 205.4 145.3C207.7 146.1 207 146.9 206.1 147.1C206.1 147.1 205.6 148.7 207.4 148.7C209.2 148.7 210.1 146.1 206.1 144.8C204.3 144.2 202.2 143.8 200.7 143.5L214 143C214 144 214.9 144.9 215.9 144.9C217 144.9 217.9 144 217.9 142.9C217.9 141.9 217 141 215.9 141Z" />
			</g>
		</g>
		<g id="Layer">
			<g id="Layer">
				<path id="Layer" class="shp0" d="M160.2 150.3C160 150.1 160 150 160 150C160 150 160 150.1 160.2 150.3Z" />
			</g>
		</g>
		<g id="Layer">
			<g id="Layer">
				<path id="Layer" fill-rule="evenodd" class="shp0" d="M149.1 143.3C149.1 143.3 140.6 143.8 138 149C138 149 135.1 143.6 125.5 143.1C125.5 143.1 136.2 142.8 137.7 136.4C137.7 136.4 139 143 149.1 143.3ZM140 143.4C140 142.3 139.1 141.4 138 141.4C136.9 141.4 136 142.3 136 143.4C136 144.5 136.9 145.4 138 145.4C139.1 145.4 140 144.5 140 143.4Z" />
			</g>
		</g>
		<g id="Layer">
			<g id="Layer">
				<path id="Layer" class="shp0" d="M137.7 163C136.87 163 136.2 162.33 136.2 161.5C136.2 160.67 136.87 160 137.7 160C138.53 160 139.2 160.67 139.2 161.5C139.2 162.33 138.53 163 137.7 163Z" />
			</g>
		</g>
		<g id="Layer">
			<g id="Layer">
				<path id="Layer" class="shp0" d="M118.8 150.6C113.1 153 114.1 160.2 121.1 160.2C128.1 160.2 129.2 155.8 129.2 155.8C129.2 155.8 127.1 159.5 121.7 159.2C113.4 158.7 115.3 150.9 124 150.9C132.6 150.9 136.1 159.4 136.1 159.4C133.3 149.2 124.5 148.2 118.8 150.6Z" />
			</g>
		</g>
		<g id="Layer">
			<g id="Layer">
				<path id="Layer" class="shp0" d="M156.9 150.6C151.2 148.2 142.4 149.1 139.6 159.4C139.6 159.4 143 150.9 151.7 150.9C160.4 150.9 162.3 158.7 154 159.2C148.6 159.5 146.5 155.8 146.5 155.8C146.5 155.8 147.6 160.2 154.6 160.2C161.7 160.2 162.6 153.1 156.9 150.6Z" />
			</g>
		</g>
		<g id="Layer">
			<g id="Layer">
				<path id="Layer" class="shp0" d="M137.5 150.5C134.2 150.7 137.7 158.8 137.7 158.8C137.7 158.8 140.8 150.3 137.5 150.5Z" />
			</g>
		</g>
	</g>
	<path id="Layer" class="shp1" d="M0 68.2L277 68.2" />
	<path id="Layer" class="shp1" d="M0 126.2L277 126.2" />
</svg>